<mxfile host="app.diagrams.net" agent="Mozilla/5.0 (Windows NT 10.0; Win64; x64) AppleWebKit/537.36 (KHTML, like Gecko) Chrome/138.0.0.0 Safari/537.36" version="28.0.6">
  <diagram name="第 1 页" id="mSn9Ez4zVoo0hMpz-cZX">
    <mxGraphModel dx="1426" dy="743" grid="1" gridSize="10" guides="1" tooltips="1" connect="1" arrows="1" fold="1" page="1" pageScale="1" pageWidth="827" pageHeight="1169" math="0" shadow="0">
      <root>
        <mxCell id="0" />
        <mxCell id="1" parent="0" />
        <mxCell id="UMId5WSSGjp5QsCskQSA-1" value="" style="rounded=0;whiteSpace=wrap;html=1;strokeWidth=1;fontSize=10;fillColor=#f9f7ed;strokeColor=#36393d;" parent="1" vertex="1">
          <mxGeometry x="44" y="360" width="740" height="460" as="geometry" />
        </mxCell>
        <mxCell id="UMId5WSSGjp5QsCskQSA-2" value="" style="rounded=0;whiteSpace=wrap;html=1;strokeWidth=1;fontSize=10;fontColor=#333333;fillColor=#f5f5f5;strokeColor=default;" parent="1" vertex="1">
          <mxGeometry x="44" y="40" width="740" height="310" as="geometry" />
        </mxCell>
        <mxCell id="UMId5WSSGjp5QsCskQSA-3" style="edgeStyle=orthogonalEdgeStyle;rounded=0;orthogonalLoop=1;jettySize=auto;html=1;entryX=0;entryY=0.5;entryDx=0;entryDy=0;fontSize=12;" parent="1" source="UMId5WSSGjp5QsCskQSA-17" target="UMId5WSSGjp5QsCskQSA-50" edge="1">
          <mxGeometry relative="1" as="geometry">
            <mxPoint x="645" y="201.875" as="targetPoint" />
          </mxGeometry>
        </mxCell>
        <mxCell id="UMId5WSSGjp5QsCskQSA-4" style="edgeStyle=orthogonalEdgeStyle;rounded=0;orthogonalLoop=1;jettySize=auto;html=1;entryX=0;entryY=0.5;entryDx=0;entryDy=0;fontSize=12;" parent="1" source="UMId5WSSGjp5QsCskQSA-23" target="UMId5WSSGjp5QsCskQSA-50" edge="1">
          <mxGeometry relative="1" as="geometry">
            <mxPoint x="645" y="201.875" as="targetPoint" />
          </mxGeometry>
        </mxCell>
        <mxCell id="UMId5WSSGjp5QsCskQSA-5" style="edgeStyle=orthogonalEdgeStyle;rounded=0;orthogonalLoop=1;jettySize=auto;html=1;entryX=0;entryY=0.5;entryDx=0;entryDy=0;fontSize=12;" parent="1" source="UMId5WSSGjp5QsCskQSA-14" target="UMId5WSSGjp5QsCskQSA-20" edge="1">
          <mxGeometry relative="1" as="geometry" />
        </mxCell>
        <mxCell id="UMId5WSSGjp5QsCskQSA-6" value="引用" style="edgeStyle=orthogonalEdgeStyle;rounded=0;orthogonalLoop=1;jettySize=auto;html=1;dashed=1;" parent="1" source="UMId5WSSGjp5QsCskQSA-8" target="UMId5WSSGjp5QsCskQSA-11" edge="1">
          <mxGeometry relative="1" as="geometry" />
        </mxCell>
        <mxCell id="UMId5WSSGjp5QsCskQSA-7" style="edgeStyle=orthogonalEdgeStyle;rounded=0;orthogonalLoop=1;jettySize=auto;html=1;" parent="1" source="UMId5WSSGjp5QsCskQSA-8" target="UMId5WSSGjp5QsCskQSA-14" edge="1">
          <mxGeometry relative="1" as="geometry" />
        </mxCell>
        <mxCell id="UMId5WSSGjp5QsCskQSA-8" value="demo.uni.proj" style="strokeWidth=1;html=1;shape=mxgraph.flowchart.document2;whiteSpace=wrap;size=0.25;fillColor=#ffe6cc;strokeColor=#d79b00;fontStyle=1" parent="1" vertex="1">
          <mxGeometry x="73" y="85.63" width="100" height="50" as="geometry" />
        </mxCell>
        <mxCell id="UMId5WSSGjp5QsCskQSA-9" style="edgeStyle=orthogonalEdgeStyle;rounded=0;orthogonalLoop=1;jettySize=auto;html=1;" parent="1" source="UMId5WSSGjp5QsCskQSA-11" target="UMId5WSSGjp5QsCskQSA-16" edge="1">
          <mxGeometry relative="1" as="geometry" />
        </mxCell>
        <mxCell id="UMId5WSSGjp5QsCskQSA-10" style="edgeStyle=orthogonalEdgeStyle;rounded=0;orthogonalLoop=1;jettySize=auto;html=1;fontSize=12;" parent="1" source="UMId5WSSGjp5QsCskQSA-11" target="UMId5WSSGjp5QsCskQSA-25" edge="1">
          <mxGeometry relative="1" as="geometry" />
        </mxCell>
        <mxCell id="UMId5WSSGjp5QsCskQSA-11" value="demo&amp;nbsp;rtl src" style="strokeWidth=1;html=1;shape=mxgraph.flowchart.multi-document;whiteSpace=wrap;fillColor=#bac8d3;strokeColor=#23445d;fontStyle=1" parent="1" vertex="1">
          <mxGeometry x="73" y="270" width="100" height="60" as="geometry" />
        </mxCell>
        <mxCell id="UMId5WSSGjp5QsCskQSA-12" value="调用" style="edgeStyle=orthogonalEdgeStyle;rounded=0;orthogonalLoop=1;jettySize=auto;html=1;" parent="1" source="UMId5WSSGjp5QsCskQSA-14" target="UMId5WSSGjp5QsCskQSA-16" edge="1">
          <mxGeometry relative="1" as="geometry" />
        </mxCell>
        <mxCell id="UMId5WSSGjp5QsCskQSA-13" value="生成" style="edgeStyle=orthogonalEdgeStyle;rounded=0;orthogonalLoop=1;jettySize=auto;html=1;fontSize=12;" parent="1" source="UMId5WSSGjp5QsCskQSA-14" target="UMId5WSSGjp5QsCskQSA-23" edge="1">
          <mxGeometry relative="1" as="geometry" />
        </mxCell>
        <mxCell id="UMId5WSSGjp5QsCskQSA-14" value="Unibench" style="label;whiteSpace=wrap;html=1;image=img/clipart/Gear_128x128.png;strokeWidth=1;fillColor=#eeeeee;strokeColor=#36393d;align=center;" parent="1" vertex="1">
          <mxGeometry x="234" y="85" width="120" height="50" as="geometry" />
        </mxCell>
        <mxCell id="UMId5WSSGjp5QsCskQSA-15" value="生成" style="edgeStyle=orthogonalEdgeStyle;rounded=0;orthogonalLoop=1;jettySize=auto;html=1;" parent="1" source="UMId5WSSGjp5QsCskQSA-16" target="UMId5WSSGjp5QsCskQSA-17" edge="1">
          <mxGeometry relative="1" as="geometry" />
        </mxCell>
        <mxCell id="UMId5WSSGjp5QsCskQSA-16" value="Zolon V2C" style="label;whiteSpace=wrap;html=1;image=img/clipart/Gear_128x128.png;strokeWidth=1;fillColor=#dae8fc;strokeColor=#6c8ebf;align=center;" parent="1" vertex="1">
          <mxGeometry x="233" y="275" width="120" height="50" as="geometry" />
        </mxCell>
        <mxCell id="UMId5WSSGjp5QsCskQSA-17" value="&lt;b&gt;RTL2C Core&lt;/b&gt;&lt;br&gt;Vdemo.h&lt;br&gt;libVdemo.so" style="rounded=1;whiteSpace=wrap;html=1;strokeWidth=1;fillColor=#fff2cc;strokeColor=#d6b656;gradientColor=#ffd966;" parent="1" vertex="1">
          <mxGeometry x="454" y="272.5" width="100" height="52.5" as="geometry" />
        </mxCell>
        <mxCell id="UMId5WSSGjp5QsCskQSA-18" value="例化" style="edgeStyle=orthogonalEdgeStyle;rounded=0;orthogonalLoop=1;jettySize=auto;html=1;exitX=0.5;exitY=1;exitDx=0;exitDy=0;fontSize=12;dashed=1;" parent="1" source="UMId5WSSGjp5QsCskQSA-20" target="UMId5WSSGjp5QsCskQSA-17" edge="1">
          <mxGeometry relative="1" as="geometry" />
        </mxCell>
        <mxCell id="UMId5WSSGjp5QsCskQSA-19" value="编译" style="edgeStyle=orthogonalEdgeStyle;rounded=0;orthogonalLoop=1;jettySize=auto;html=1;entryX=0;entryY=0.5;entryDx=0;entryDy=0;fontSize=12;" parent="1" source="UMId5WSSGjp5QsCskQSA-20" target="UMId5WSSGjp5QsCskQSA-50" edge="1">
          <mxGeometry relative="1" as="geometry">
            <mxPoint x="645" y="201.875" as="targetPoint" />
          </mxGeometry>
        </mxCell>
        <mxCell id="UMId5WSSGjp5QsCskQSA-20" value="&lt;b&gt;CA model&lt;/b&gt;&lt;br&gt;&lt;font style=&quot;font-size: 12px;&quot;&gt;ca_top.h/cpp&lt;br&gt;ca_core.h/cpp&lt;br&gt;&lt;/font&gt;" style="rounded=1;whiteSpace=wrap;html=1;strokeWidth=1;fillColor=#f5f5f5;fontColor=#333333;strokeColor=#666666;" parent="1" vertex="1">
          <mxGeometry x="454" y="178.75" width="100" height="46.25" as="geometry" />
        </mxCell>
        <mxCell id="UMId5WSSGjp5QsCskQSA-21" value="调用" style="edgeStyle=orthogonalEdgeStyle;rounded=0;orthogonalLoop=1;jettySize=auto;html=1;dashed=1;strokeColor=#000000;strokeWidth=1;fontSize=12;" parent="1" source="UMId5WSSGjp5QsCskQSA-50" target="UMId5WSSGjp5QsCskQSA-47" edge="1">
          <mxGeometry relative="1" as="geometry">
            <mxPoint x="695" y="225" as="sourcePoint" />
          </mxGeometry>
        </mxCell>
        <mxCell id="UMId5WSSGjp5QsCskQSA-22" value="例化" style="edgeStyle=orthogonalEdgeStyle;rounded=0;orthogonalLoop=1;jettySize=auto;html=1;fontSize=12;dashed=1;" parent="1" source="UMId5WSSGjp5QsCskQSA-23" target="UMId5WSSGjp5QsCskQSA-20" edge="1">
          <mxGeometry relative="1" as="geometry" />
        </mxCell>
        <mxCell id="UMId5WSSGjp5QsCskQSA-23" value="&lt;b&gt;lite环境&lt;/b&gt;&lt;br&gt;&lt;font style=&quot;font-size: 12px;&quot;&gt;lite_main.cpp&lt;br&gt;lite_platform.h/cpp&lt;br&gt;&lt;/font&gt;" style="rounded=1;whiteSpace=wrap;html=1;strokeWidth=1;fillColor=#f5f5f5;fontColor=#333333;strokeColor=#666666;" parent="1" vertex="1">
          <mxGeometry x="454" y="85.63" width="100" height="46.25" as="geometry" />
        </mxCell>
        <mxCell id="UMId5WSSGjp5QsCskQSA-24" value="生成" style="edgeStyle=orthogonalEdgeStyle;rounded=0;orthogonalLoop=1;jettySize=auto;html=1;fontSize=12;" parent="1" source="UMId5WSSGjp5QsCskQSA-25" target="UMId5WSSGjp5QsCskQSA-27" edge="1">
          <mxGeometry relative="1" as="geometry" />
        </mxCell>
        <mxCell id="UMId5WSSGjp5QsCskQSA-25" value="Yosys&amp;amp;abc" style="label;whiteSpace=wrap;html=1;image=img/clipart/Gear_128x128.png;strokeWidth=1;fillColor=#ffcccc;strokeColor=#36393d;align=center;" parent="1" vertex="1">
          <mxGeometry x="63" y="380" width="120" height="50" as="geometry" />
        </mxCell>
        <mxCell id="UMId5WSSGjp5QsCskQSA-26" style="edgeStyle=orthogonalEdgeStyle;rounded=0;orthogonalLoop=1;jettySize=auto;html=1;fontSize=12;" parent="1" source="UMId5WSSGjp5QsCskQSA-27" target="UMId5WSSGjp5QsCskQSA-29" edge="1">
          <mxGeometry relative="1" as="geometry" />
        </mxCell>
        <mxCell id="UMId5WSSGjp5QsCskQSA-27" value="&lt;font style=&quot;font-size: 12px;&quot;&gt;&lt;b&gt;LUT级网表&lt;/b&gt;&lt;br&gt;&lt;/font&gt;" style="rounded=1;whiteSpace=wrap;html=1;strokeWidth=1;fillColor=#fad7ac;strokeColor=#b46504;" parent="1" vertex="1">
          <mxGeometry x="73" y="480" width="100" height="46.25" as="geometry" />
        </mxCell>
        <mxCell id="UMId5WSSGjp5QsCskQSA-28" style="edgeStyle=orthogonalEdgeStyle;rounded=0;orthogonalLoop=1;jettySize=auto;html=1;entryX=0;entryY=0.5;entryDx=0;entryDy=0;fontSize=12;" parent="1" source="UMId5WSSGjp5QsCskQSA-29" target="UMId5WSSGjp5QsCskQSA-33" edge="1">
          <mxGeometry relative="1" as="geometry" />
        </mxCell>
        <mxCell id="UMId5WSSGjp5QsCskQSA-29" value="Emu Compiler" style="label;whiteSpace=wrap;html=1;image=img/clipart/Gear_128x128.png;strokeWidth=1;fillColor=#e1d5e7;strokeColor=#9673a6;align=center;" parent="1" vertex="1">
          <mxGeometry x="233" y="478.13" width="120" height="50" as="geometry" />
        </mxCell>
        <mxCell id="UMId5WSSGjp5QsCskQSA-30" value="&lt;font style=&quot;font-size: 12px;&quot;&gt;&lt;b&gt;Emu控制字指令&lt;br&gt;&lt;/b&gt;demo_load_cmd_int.xml&lt;br&gt;&lt;/font&gt;" style="rounded=1;whiteSpace=wrap;html=1;strokeWidth=1;fillColor=#d5e8d4;strokeColor=#82b366;" parent="1" vertex="1">
          <mxGeometry x="424" y="410" width="150" height="46.25" as="geometry" />
        </mxCell>
        <mxCell id="UMId5WSSGjp5QsCskQSA-31" value="&lt;font style=&quot;font-size: 12px;&quot;&gt;&lt;b&gt;信号的EpStep映射&lt;br&gt;&lt;/b&gt;demo_trace_signals.xml&lt;br&gt;&lt;/font&gt;" style="rounded=1;whiteSpace=wrap;html=1;strokeWidth=1;fillColor=#d5e8d4;strokeColor=#82b366;" parent="1" vertex="1">
          <mxGeometry x="424" y="480" width="150" height="46.25" as="geometry" />
        </mxCell>
        <mxCell id="UMId5WSSGjp5QsCskQSA-32" value="例化" style="edgeStyle=orthogonalEdgeStyle;rounded=0;orthogonalLoop=1;jettySize=auto;html=1;fontSize=12;dashed=1;" parent="1" source="UMId5WSSGjp5QsCskQSA-33" target="UMId5WSSGjp5QsCskQSA-44" edge="1">
          <mxGeometry relative="1" as="geometry" />
        </mxCell>
        <mxCell id="UMId5WSSGjp5QsCskQSA-33" value="&lt;font style=&quot;font-size: 12px;&quot;&gt;&lt;b&gt;sc_top&lt;br&gt;&lt;/b&gt;Vdemo.h/cpp&lt;br&gt;Vdemo_trace.cpp&lt;br&gt;&lt;/font&gt;" style="rounded=1;whiteSpace=wrap;html=1;strokeWidth=1;fillColor=#d5e8d4;strokeColor=#82b366;" parent="1" vertex="1">
          <mxGeometry x="424" y="560" width="150" height="46.25" as="geometry" />
        </mxCell>
        <mxCell id="UMId5WSSGjp5QsCskQSA-34" value="" style="edgeStyle=orthogonalEdgeStyle;rounded=0;orthogonalLoop=1;jettySize=auto;html=1;entryX=0;entryY=0.5;entryDx=0;entryDy=0;fontSize=12;" parent="1" source="UMId5WSSGjp5QsCskQSA-29" target="UMId5WSSGjp5QsCskQSA-30" edge="1">
          <mxGeometry relative="1" as="geometry" />
        </mxCell>
        <mxCell id="UMId5WSSGjp5QsCskQSA-35" value="生成" style="edgeStyle=orthogonalEdgeStyle;rounded=0;orthogonalLoop=1;jettySize=auto;html=1;fontSize=12;" parent="1" source="UMId5WSSGjp5QsCskQSA-36" target="UMId5WSSGjp5QsCskQSA-39" edge="1">
          <mxGeometry relative="1" as="geometry" />
        </mxCell>
        <mxCell id="UMId5WSSGjp5QsCskQSA-36" value="Zolon V2C" style="label;whiteSpace=wrap;html=1;image=img/clipart/Gear_128x128.png;strokeWidth=1;fillColor=#dae8fc;strokeColor=#6c8ebf;align=center;" parent="1" vertex="1">
          <mxGeometry x="233" y="727" width="120" height="50" as="geometry" />
        </mxCell>
        <mxCell id="UMId5WSSGjp5QsCskQSA-37" style="edgeStyle=orthogonalEdgeStyle;rounded=0;orthogonalLoop=1;jettySize=auto;html=1;fontSize=12;" parent="1" source="UMId5WSSGjp5QsCskQSA-38" target="UMId5WSSGjp5QsCskQSA-36" edge="1">
          <mxGeometry relative="1" as="geometry" />
        </mxCell>
        <mxCell id="UMId5WSSGjp5QsCskQSA-38" value="EMU rtl src" style="strokeWidth=1;html=1;shape=mxgraph.flowchart.multi-document;whiteSpace=wrap;fillColor=#ffcccc;strokeColor=#36393d;fontStyle=1" parent="1" vertex="1">
          <mxGeometry x="73" y="722" width="100" height="60" as="geometry" />
        </mxCell>
        <mxCell id="UMId5WSSGjp5QsCskQSA-39" value="&lt;b&gt;Emu Module Core&lt;/b&gt;&lt;br&gt;Vmodule_top.h&lt;br&gt;libVmodule_top.so" style="rounded=1;whiteSpace=wrap;html=1;strokeWidth=1;fillColor=#f8cecc;strokeColor=#b85450;" parent="1" vertex="1">
          <mxGeometry x="434" y="724.5" width="130" height="55" as="geometry" />
        </mxCell>
        <mxCell id="UMId5WSSGjp5QsCskQSA-40" value="生成" style="edgeStyle=orthogonalEdgeStyle;rounded=0;orthogonalLoop=1;jettySize=auto;html=1;entryX=0;entryY=0.5;entryDx=0;entryDy=0;fontSize=12;" parent="1" source="UMId5WSSGjp5QsCskQSA-29" target="UMId5WSSGjp5QsCskQSA-31" edge="1">
          <mxGeometry relative="1" as="geometry" />
        </mxCell>
        <mxCell id="UMId5WSSGjp5QsCskQSA-41" value="替换" style="curved=1;endArrow=classic;html=1;rounded=0;dashed=1;fontSize=12;exitX=0.5;exitY=0;exitDx=0;exitDy=0;entryX=1;entryY=0.75;entryDx=0;entryDy=0;strokeWidth=2;strokeColor=#FF8000;dashPattern=1 1;fontColor=#CC6600;" parent="1" source="UMId5WSSGjp5QsCskQSA-47" target="UMId5WSSGjp5QsCskQSA-17" edge="1">
          <mxGeometry width="50" height="50" relative="1" as="geometry">
            <mxPoint x="670" y="510" as="sourcePoint" />
            <mxPoint x="720" y="460" as="targetPoint" />
            <Array as="points">
              <mxPoint x="694" y="510" />
              <mxPoint x="654" y="330" />
            </Array>
          </mxGeometry>
        </mxCell>
        <mxCell id="UMId5WSSGjp5QsCskQSA-42" value="例化" style="edgeStyle=orthogonalEdgeStyle;rounded=0;orthogonalLoop=1;jettySize=auto;html=1;dashed=1;strokeColor=#000000;strokeWidth=1;fontSize=12;" parent="1" source="UMId5WSSGjp5QsCskQSA-44" target="UMId5WSSGjp5QsCskQSA-39" edge="1">
          <mxGeometry relative="1" as="geometry" />
        </mxCell>
        <mxCell id="UMId5WSSGjp5QsCskQSA-43" style="edgeStyle=orthogonalEdgeStyle;rounded=0;orthogonalLoop=1;jettySize=auto;html=1;strokeColor=#000000;strokeWidth=1;fontSize=12;entryX=0;entryY=0.5;entryDx=0;entryDy=0;" parent="1" source="UMId5WSSGjp5QsCskQSA-44" target="UMId5WSSGjp5QsCskQSA-47" edge="1">
          <mxGeometry relative="1" as="geometry" />
        </mxCell>
        <mxCell id="UMId5WSSGjp5QsCskQSA-44" value="&lt;font style=&quot;font-size: 12px;&quot;&gt;&lt;b&gt;inst src&lt;br&gt;&lt;/b&gt;emu_mod_inst.h/cpp&lt;br&gt;&lt;/font&gt;" style="rounded=1;whiteSpace=wrap;html=1;strokeWidth=1;fillColor=#ffe6cc;strokeColor=#d79b00;" parent="1" vertex="1">
          <mxGeometry x="434" y="650" width="130" height="36.25" as="geometry" />
        </mxCell>
        <mxCell id="UMId5WSSGjp5QsCskQSA-45" value="调用" style="edgeStyle=orthogonalEdgeStyle;rounded=0;orthogonalLoop=1;jettySize=auto;html=1;entryX=1;entryY=0.5;entryDx=0;entryDy=0;dashed=1;strokeColor=#000000;strokeWidth=1;fontSize=12;exitX=0.5;exitY=1;exitDx=0;exitDy=0;" parent="1" source="UMId5WSSGjp5QsCskQSA-47" target="UMId5WSSGjp5QsCskQSA-39" edge="1">
          <mxGeometry relative="1" as="geometry" />
        </mxCell>
        <mxCell id="UMId5WSSGjp5QsCskQSA-46" value="" style="edgeStyle=orthogonalEdgeStyle;rounded=0;orthogonalLoop=1;jettySize=auto;html=1;exitX=0.25;exitY=0;exitDx=0;exitDy=0;entryX=1;entryY=0.5;entryDx=0;entryDy=0;strokeColor=#000000;strokeWidth=1;fontSize=10;" parent="1" source="UMId5WSSGjp5QsCskQSA-47" target="UMId5WSSGjp5QsCskQSA-30" edge="1">
          <mxGeometry relative="1" as="geometry" />
        </mxCell>
        <mxCell id="UMId5WSSGjp5QsCskQSA-47" value="&lt;b&gt;RTL2C Core&lt;/b&gt;&lt;br&gt;Vdemo.h&lt;br&gt;libVdemo.so" style="rounded=1;whiteSpace=wrap;html=1;strokeWidth=1;fillColor=#fff2cc;strokeColor=#d6b656;gradientColor=#ffd966;" parent="1" vertex="1">
          <mxGeometry x="645" y="556.87" width="100" height="52.5" as="geometry" />
        </mxCell>
        <mxCell id="UMId5WSSGjp5QsCskQSA-48" value="编译" style="edgeStyle=orthogonalEdgeStyle;rounded=0;orthogonalLoop=1;jettySize=auto;html=1;strokeColor=#000000;strokeWidth=1;fontSize=12;" parent="1" source="UMId5WSSGjp5QsCskQSA-33" target="UMId5WSSGjp5QsCskQSA-47" edge="1">
          <mxGeometry relative="1" as="geometry" />
        </mxCell>
        <mxCell id="UMId5WSSGjp5QsCskQSA-49" value="加载" style="edgeStyle=orthogonalEdgeStyle;rounded=0;orthogonalLoop=1;jettySize=auto;html=1;exitX=0.25;exitY=0;exitDx=0;exitDy=0;entryX=1;entryY=0.5;entryDx=0;entryDy=0;strokeColor=#000000;strokeWidth=1;fontSize=10;" parent="1" source="UMId5WSSGjp5QsCskQSA-47" target="UMId5WSSGjp5QsCskQSA-31" edge="1">
          <mxGeometry x="-0.2824" relative="1" as="geometry">
            <mxPoint as="offset" />
          </mxGeometry>
        </mxCell>
        <mxCell id="UMId5WSSGjp5QsCskQSA-50" value="router_top.exe" style="label;whiteSpace=wrap;html=1;image=img/clipart/Gear_128x128.png;strokeWidth=1;fontSize=12;fontColor=default;fillColor=#f5f5f5;align=center;strokeColor=#666666;gradientColor=#b3b3b3;" parent="1" vertex="1">
          <mxGeometry x="625.5" y="171.87" width="139" height="60" as="geometry" />
        </mxCell>
        <mxCell id="UMId5WSSGjp5QsCskQSA-51" value="服务器仿真流程" style="text;strokeColor=none;fillColor=none;html=1;fontSize=18;fontStyle=1;verticalAlign=middle;align=center;strokeWidth=1;fontColor=#000000;" parent="1" vertex="1">
          <mxGeometry x="345" y="40" width="146" height="40" as="geometry" />
        </mxCell>
        <mxCell id="UMId5WSSGjp5QsCskQSA-52" value="EMU仿真扩充流程" style="text;strokeColor=none;fillColor=none;html=1;fontSize=18;fontStyle=1;verticalAlign=middle;align=center;strokeWidth=1;fontColor=#CC6600;" parent="1" vertex="1">
          <mxGeometry x="327.5" y="782" width="173" height="40" as="geometry" />
        </mxCell>
        <mxCell id="6J3ef90GhwBd-mnjXwd4-1" value="" style="shape=partialRectangle;whiteSpace=wrap;html=1;top=0;bottom=0;fillColor=none;dashed=1;strokeColor=default;strokeWidth=1;fontSize=12;fontColor=#000000;" vertex="1" parent="1">
          <mxGeometry x="1089.5" y="1993" width="60" height="141" as="geometry" />
        </mxCell>
        <mxCell id="6J3ef90GhwBd-mnjXwd4-2" value="" style="shape=partialRectangle;whiteSpace=wrap;html=1;top=0;bottom=0;fillColor=none;dashed=1;strokeColor=default;strokeWidth=1;fontSize=12;fontColor=#000000;" vertex="1" parent="1">
          <mxGeometry x="971.5" y="1993" width="60" height="141" as="geometry" />
        </mxCell>
        <mxCell id="6J3ef90GhwBd-mnjXwd4-3" value="" style="rounded=0;whiteSpace=wrap;html=1;strokeColor=#36393d;strokeWidth=1;fontSize=12;fillColor=#f9f7ed;" vertex="1" parent="1">
          <mxGeometry x="1176.5" y="1303" width="229" height="146" as="geometry" />
        </mxCell>
        <mxCell id="6J3ef90GhwBd-mnjXwd4-4" value="" style="rounded=0;whiteSpace=wrap;html=1;strokeColor=#666666;strokeWidth=1;fontSize=12;fontColor=#333333;fillColor=#f5f5f5;" vertex="1" parent="1">
          <mxGeometry x="947.5" y="1304" width="187" height="145" as="geometry" />
        </mxCell>
        <mxCell id="6J3ef90GhwBd-mnjXwd4-5" value="" style="verticalLabelPosition=bottom;shadow=0;dashed=0;align=center;html=1;verticalAlign=top;shape=mxgraph.electrical.logic_gates.d_type_flip-flop;strokeColor=#666666;strokeWidth=1;fontSize=18;fillColor=#f5f5f5;gradientColor=#b3b3b3;" vertex="1" parent="1">
          <mxGeometry x="1018.5" y="1335" width="100" height="80" as="geometry" />
        </mxCell>
        <mxCell id="6J3ef90GhwBd-mnjXwd4-6" style="edgeStyle=orthogonalEdgeStyle;rounded=0;orthogonalLoop=1;jettySize=auto;html=1;entryX=0;entryY=0.75;entryDx=0;entryDy=0;entryPerimeter=0;strokeColor=#000000;strokeWidth=1;fontSize=18;fontColor=#CC6600;" edge="1" parent="1" source="6J3ef90GhwBd-mnjXwd4-7" target="6J3ef90GhwBd-mnjXwd4-5">
          <mxGeometry relative="1" as="geometry" />
        </mxCell>
        <mxCell id="6J3ef90GhwBd-mnjXwd4-7" value="clk" style="text;html=1;strokeColor=none;fillColor=none;align=center;verticalAlign=middle;whiteSpace=wrap;rounded=0;strokeWidth=1;fontSize=12;fontColor=#CC6600;" vertex="1" parent="1">
          <mxGeometry x="947.5" y="1360" width="34" height="30" as="geometry" />
        </mxCell>
        <mxCell id="6J3ef90GhwBd-mnjXwd4-8" style="edgeStyle=orthogonalEdgeStyle;rounded=0;orthogonalLoop=1;jettySize=auto;html=1;strokeColor=#000000;strokeWidth=1;fontSize=18;fontColor=#CC6600;exitX=1;exitY=0.5;exitDx=0;exitDy=0;" edge="1" parent="1" source="6J3ef90GhwBd-mnjXwd4-10" target="6J3ef90GhwBd-mnjXwd4-12">
          <mxGeometry relative="1" as="geometry">
            <mxPoint x="1243.5" y="1350" as="targetPoint" />
          </mxGeometry>
        </mxCell>
        <mxCell id="6J3ef90GhwBd-mnjXwd4-9" value="" style="edgeStyle=orthogonalEdgeStyle;rounded=0;orthogonalLoop=1;jettySize=auto;html=1;strokeColor=#000000;strokeWidth=1;fontSize=12;fontColor=#FF8000;" edge="1" parent="1" source="6J3ef90GhwBd-mnjXwd4-10" target="6J3ef90GhwBd-mnjXwd4-14">
          <mxGeometry relative="1" as="geometry" />
        </mxCell>
        <mxCell id="6J3ef90GhwBd-mnjXwd4-10" value="clk" style="text;html=1;strokeColor=none;fillColor=none;align=center;verticalAlign=middle;whiteSpace=wrap;rounded=0;strokeWidth=1;fontSize=12;fontColor=#CC6600;" vertex="1" parent="1">
          <mxGeometry x="1181.5" y="1304" width="34" height="30" as="geometry" />
        </mxCell>
        <mxCell id="6J3ef90GhwBd-mnjXwd4-11" value="last data" style="edgeStyle=orthogonalEdgeStyle;rounded=0;orthogonalLoop=1;jettySize=auto;html=1;strokeColor=#000000;strokeWidth=1;fontSize=12;fontColor=#000000;entryX=0;entryY=0.5;entryDx=0;entryDy=0;curved=1;" edge="1" parent="1" source="6J3ef90GhwBd-mnjXwd4-12" target="6J3ef90GhwBd-mnjXwd4-14">
          <mxGeometry relative="1" as="geometry">
            <Array as="points">
              <mxPoint x="1298.5" y="1409" />
              <mxPoint x="1298.5" y="1364" />
            </Array>
          </mxGeometry>
        </mxCell>
        <mxCell id="6J3ef90GhwBd-mnjXwd4-12" value="backup" style="ellipse;whiteSpace=wrap;html=1;strokeColor=#d79b00;strokeWidth=1;fontSize=12;fillColor=#ffe6cc;" vertex="1" parent="1">
          <mxGeometry x="1203.5" y="1401" width="71" height="39" as="geometry" />
        </mxCell>
        <mxCell id="6J3ef90GhwBd-mnjXwd4-13" style="edgeStyle=orthogonalEdgeStyle;rounded=0;orthogonalLoop=1;jettySize=auto;html=1;strokeColor=#000000;strokeWidth=1;fontSize=12;fontColor=#CC6600;" edge="1" parent="1" source="6J3ef90GhwBd-mnjXwd4-14" target="6J3ef90GhwBd-mnjXwd4-15">
          <mxGeometry relative="1" as="geometry">
            <mxPoint x="1358" y="1423.8095238095239" as="targetPoint" />
          </mxGeometry>
        </mxCell>
        <mxCell id="6J3ef90GhwBd-mnjXwd4-14" value="posedge" style="ellipse;whiteSpace=wrap;html=1;strokeColor=#d79b00;strokeWidth=1;fontSize=12;fillColor=#ffe6cc;" vertex="1" parent="1">
          <mxGeometry x="1322.5" y="1344" width="71" height="39" as="geometry" />
        </mxCell>
        <mxCell id="6J3ef90GhwBd-mnjXwd4-15" value="posedge" style="text;html=1;strokeColor=none;fillColor=none;align=center;verticalAlign=middle;whiteSpace=wrap;rounded=0;strokeWidth=1;fontSize=12;fontColor=#CC6600;" vertex="1" parent="1">
          <mxGeometry x="1331" y="1424" width="54" height="22" as="geometry" />
        </mxCell>
        <mxCell id="6J3ef90GhwBd-mnjXwd4-16" value="ctrl flow" style="curved=1;endArrow=classic;html=1;rounded=0;dashed=1;strokeColor=#0000FF;strokeWidth=1;fontSize=12;fontColor=#0000FF;exitX=0;exitY=1;exitDx=0;exitDy=0;" edge="1" parent="1" source="6J3ef90GhwBd-mnjXwd4-14" target="6J3ef90GhwBd-mnjXwd4-12">
          <mxGeometry x="-0.2282" y="-7" width="50" height="50" relative="1" as="geometry">
            <mxPoint x="1172.5" y="1344" as="sourcePoint" />
            <mxPoint x="1222.5" y="1294" as="targetPoint" />
            <Array as="points">
              <mxPoint x="1317.5" y="1428" />
            </Array>
            <mxPoint as="offset" />
          </mxGeometry>
        </mxCell>
        <mxCell id="6J3ef90GhwBd-mnjXwd4-17" value="" style="html=1;shadow=0;dashed=0;align=center;verticalAlign=middle;shape=mxgraph.arrows2.arrow;dy=0;dx=9.19;notch=9.77;strokeColor=none;strokeWidth=1;fontSize=12;fillColor=#bac8d3;" vertex="1" parent="1">
          <mxGeometry x="1146.5" y="1359.5" width="19" height="33" as="geometry" />
        </mxCell>
        <mxCell id="6J3ef90GhwBd-mnjXwd4-18" style="edgeStyle=orthogonalEdgeStyle;curved=1;rounded=0;orthogonalLoop=1;jettySize=auto;html=1;entryX=0;entryY=0;entryDx=0;entryDy=0;strokeColor=#000000;strokeWidth=1;fontSize=12;fontColor=#000000;exitX=0.5;exitY=1;exitDx=0;exitDy=0;" edge="1" parent="1" source="6J3ef90GhwBd-mnjXwd4-19" target="6J3ef90GhwBd-mnjXwd4-20">
          <mxGeometry relative="1" as="geometry" />
        </mxCell>
        <mxCell id="6J3ef90GhwBd-mnjXwd4-19" value="A" style="ellipse;whiteSpace=wrap;html=1;strokeColor=default;strokeWidth=1;fontSize=12;fontColor=#000000;fillColor=default;" vertex="1" parent="1">
          <mxGeometry x="1038.5" y="1529" width="69" height="41" as="geometry" />
        </mxCell>
        <mxCell id="6J3ef90GhwBd-mnjXwd4-20" value="C" style="ellipse;whiteSpace=wrap;html=1;strokeColor=default;strokeWidth=1;fontSize=12;fontColor=#000000;fillColor=default;" vertex="1" parent="1">
          <mxGeometry x="1077.5" y="1608" width="69" height="41" as="geometry" />
        </mxCell>
        <mxCell id="6J3ef90GhwBd-mnjXwd4-21" style="edgeStyle=orthogonalEdgeStyle;curved=1;rounded=0;orthogonalLoop=1;jettySize=auto;html=1;entryX=1;entryY=0;entryDx=0;entryDy=0;strokeColor=#000000;strokeWidth=1;fontSize=12;fontColor=#000000;exitX=0.5;exitY=1;exitDx=0;exitDy=0;" edge="1" parent="1" source="6J3ef90GhwBd-mnjXwd4-22" target="6J3ef90GhwBd-mnjXwd4-20">
          <mxGeometry relative="1" as="geometry" />
        </mxCell>
        <mxCell id="6J3ef90GhwBd-mnjXwd4-22" value="B" style="ellipse;whiteSpace=wrap;html=1;strokeColor=default;strokeWidth=1;fontSize=12;fontColor=#000000;fillColor=default;" vertex="1" parent="1">
          <mxGeometry x="1121.5" y="1529" width="69" height="41" as="geometry" />
        </mxCell>
        <mxCell id="6J3ef90GhwBd-mnjXwd4-23" style="edgeStyle=orthogonalEdgeStyle;curved=1;rounded=0;orthogonalLoop=1;jettySize=auto;html=1;exitX=0.5;exitY=1;exitDx=0;exitDy=0;entryX=0.5;entryY=0;entryDx=0;entryDy=0;strokeColor=#000000;strokeWidth=1;fontSize=12;fontColor=#000000;" edge="1" parent="1" source="6J3ef90GhwBd-mnjXwd4-24" target="6J3ef90GhwBd-mnjXwd4-33">
          <mxGeometry relative="1" as="geometry" />
        </mxCell>
        <mxCell id="6J3ef90GhwBd-mnjXwd4-24" value="A" style="rounded=0;whiteSpace=wrap;html=1;strokeColor=default;strokeWidth=1;fontSize=12;fontColor=#000000;fillColor=default;" vertex="1" parent="1">
          <mxGeometry x="1006.5" y="1693" width="42" height="27" as="geometry" />
        </mxCell>
        <mxCell id="6J3ef90GhwBd-mnjXwd4-25" value="X" style="rounded=0;whiteSpace=wrap;html=1;strokeColor=default;strokeWidth=1;fontSize=12;fontColor=#000000;fillColor=default;" vertex="1" parent="1">
          <mxGeometry x="1047.5" y="1693" width="42" height="27" as="geometry" />
        </mxCell>
        <mxCell id="6J3ef90GhwBd-mnjXwd4-26" value="B" style="rounded=0;whiteSpace=wrap;html=1;strokeColor=default;strokeWidth=1;fontSize=12;fontColor=#000000;fillColor=default;" vertex="1" parent="1">
          <mxGeometry x="1146.5" y="1693" width="42" height="27" as="geometry" />
        </mxCell>
        <mxCell id="6J3ef90GhwBd-mnjXwd4-27" value="Y" style="rounded=0;whiteSpace=wrap;html=1;strokeColor=default;strokeWidth=1;fontSize=12;fontColor=#000000;fillColor=default;" vertex="1" parent="1">
          <mxGeometry x="1188.5" y="1693" width="42" height="27" as="geometry" />
        </mxCell>
        <mxCell id="6J3ef90GhwBd-mnjXwd4-28" value="EP1" style="text;html=1;strokeColor=none;fillColor=none;align=center;verticalAlign=middle;whiteSpace=wrap;rounded=0;strokeWidth=1;fontSize=12;fontColor=#000000;" vertex="1" parent="1">
          <mxGeometry x="1018.5" y="1667" width="60" height="30" as="geometry" />
        </mxCell>
        <mxCell id="6J3ef90GhwBd-mnjXwd4-29" value="EP5" style="text;html=1;strokeColor=none;fillColor=none;align=center;verticalAlign=middle;whiteSpace=wrap;rounded=0;strokeWidth=1;fontSize=12;fontColor=#000000;" vertex="1" parent="1">
          <mxGeometry x="1157.5" y="1667" width="60" height="30" as="geometry" />
        </mxCell>
        <mxCell id="6J3ef90GhwBd-mnjXwd4-30" value="1.每个EP左右两个方格分别表示计算节点、获取输入的位置；&lt;br&gt;2.节点A、B部署时如果不考虑节点C的数据获取（预留1个获取输入位置），它们所在EP的获取输入的位置都被占用后，会导致后部署的节点C无论部署在什么位置都无法获取所有输入；" style="text;html=1;strokeColor=none;fillColor=none;align=left;verticalAlign=middle;whiteSpace=wrap;rounded=0;strokeWidth=1;fontSize=12;fontColor=#000000;" vertex="1" parent="1">
          <mxGeometry x="963.5" y="1814" width="334" height="69" as="geometry" />
        </mxCell>
        <mxCell id="6J3ef90GhwBd-mnjXwd4-31" value="C" style="rounded=0;whiteSpace=wrap;html=1;strokeColor=default;strokeWidth=1;fontSize=12;fontColor=#000000;fillColor=default;dashed=1;" vertex="1" parent="1">
          <mxGeometry x="1006.5" y="1765" width="42" height="27" as="geometry" />
        </mxCell>
        <mxCell id="6J3ef90GhwBd-mnjXwd4-32" value="" style="rounded=0;whiteSpace=wrap;html=1;strokeColor=default;strokeWidth=1;fontSize=12;fontColor=#000000;fillColor=default;dashed=1;" vertex="1" parent="1">
          <mxGeometry x="1047.5" y="1765" width="42" height="27" as="geometry" />
        </mxCell>
        <mxCell id="6J3ef90GhwBd-mnjXwd4-33" value="C" style="rounded=0;whiteSpace=wrap;html=1;strokeColor=default;strokeWidth=1;fontSize=12;fontColor=#000000;fillColor=default;dashed=1;" vertex="1" parent="1">
          <mxGeometry x="1146" y="1765" width="42" height="27" as="geometry" />
        </mxCell>
        <mxCell id="6J3ef90GhwBd-mnjXwd4-34" value="" style="rounded=0;whiteSpace=wrap;html=1;strokeColor=default;strokeWidth=1;fontSize=12;fontColor=#000000;fillColor=default;dashed=1;" vertex="1" parent="1">
          <mxGeometry x="1187" y="1765" width="42" height="27" as="geometry" />
        </mxCell>
        <mxCell id="6J3ef90GhwBd-mnjXwd4-35" value="how?" style="edgeStyle=orthogonalEdgeStyle;curved=1;rounded=0;orthogonalLoop=1;jettySize=auto;html=1;strokeColor=#000000;strokeWidth=1;fontSize=12;fontColor=#000000;exitX=0.5;exitY=1;exitDx=0;exitDy=0;" edge="1" parent="1" source="6J3ef90GhwBd-mnjXwd4-26" target="6J3ef90GhwBd-mnjXwd4-31">
          <mxGeometry relative="1" as="geometry" />
        </mxCell>
        <mxCell id="6J3ef90GhwBd-mnjXwd4-36" value="为什么需要关联部署？" style="text;html=1;strokeColor=none;fillColor=none;align=center;verticalAlign=middle;whiteSpace=wrap;rounded=0;dashed=1;strokeWidth=1;fontSize=12;fontColor=#000000;" vertex="1" parent="1">
          <mxGeometry x="937.5" y="1494" width="141" height="30" as="geometry" />
        </mxCell>
        <mxCell id="6J3ef90GhwBd-mnjXwd4-37" value="时钟边沿模拟：" style="text;html=1;strokeColor=none;fillColor=none;align=center;verticalAlign=middle;whiteSpace=wrap;rounded=0;dashed=1;strokeWidth=1;fontSize=12;fontColor=#000000;" vertex="1" parent="1">
          <mxGeometry x="942.5" y="1270" width="141" height="30" as="geometry" />
        </mxCell>
        <mxCell id="6J3ef90GhwBd-mnjXwd4-38" value="" style="shape=partialRectangle;whiteSpace=wrap;html=1;top=0;bottom=0;fillColor=none;dashed=1;strokeColor=default;strokeWidth=1;fontSize=12;fontColor=#000000;" vertex="1" parent="1">
          <mxGeometry x="1209" y="1993" width="60" height="141" as="geometry" />
        </mxCell>
        <mxCell id="6J3ef90GhwBd-mnjXwd4-39" value="93" style="ellipse;whiteSpace=wrap;html=1;strokeColor=#6c8ebf;strokeWidth=1;fontSize=12;fillColor=#dae8fc;" vertex="1" parent="1">
          <mxGeometry x="981.5" y="2060.5" width="40" height="30" as="geometry" />
        </mxCell>
        <mxCell id="6J3ef90GhwBd-mnjXwd4-40" value="94" style="ellipse;whiteSpace=wrap;html=1;strokeColor=#6c8ebf;strokeWidth=1;fontSize=12;fillColor=#dae8fc;" vertex="1" parent="1">
          <mxGeometry x="1040.5" y="2101" width="40" height="30" as="geometry" />
        </mxCell>
        <mxCell id="6J3ef90GhwBd-mnjXwd4-41" value="75" style="ellipse;whiteSpace=wrap;html=1;strokeColor=#6c8ebf;strokeWidth=1;fontSize=12;fillColor=#dae8fc;" vertex="1" parent="1">
          <mxGeometry x="1099.5" y="2060.5" width="40" height="30" as="geometry" />
        </mxCell>
        <mxCell id="6J3ef90GhwBd-mnjXwd4-42" value="82" style="ellipse;whiteSpace=wrap;html=1;strokeColor=#6c8ebf;strokeWidth=1;fontSize=12;fillColor=#dae8fc;" vertex="1" parent="1">
          <mxGeometry x="1159.5" y="2020" width="40" height="30" as="geometry" />
        </mxCell>
        <mxCell id="6J3ef90GhwBd-mnjXwd4-43" value="77" style="ellipse;whiteSpace=wrap;html=1;strokeColor=#6c8ebf;strokeWidth=1;fontSize=12;fillColor=#dae8fc;" vertex="1" parent="1">
          <mxGeometry x="1219" y="2101" width="40" height="30" as="geometry" />
        </mxCell>
        <mxCell id="6J3ef90GhwBd-mnjXwd4-44" value="86" style="ellipse;whiteSpace=wrap;html=1;strokeColor=#6c8ebf;strokeWidth=1;fontSize=12;fillColor=#dae8fc;" vertex="1" parent="1">
          <mxGeometry x="1159.5" y="2101" width="40" height="30" as="geometry" />
        </mxCell>
        <mxCell id="6J3ef90GhwBd-mnjXwd4-45" style="edgeStyle=orthogonalEdgeStyle;curved=1;rounded=0;orthogonalLoop=1;jettySize=auto;html=1;exitX=0.5;exitY=1;exitDx=0;exitDy=0;strokeColor=#000000;strokeWidth=1;fontSize=12;fontColor=#000000;" edge="1" parent="1" source="6J3ef90GhwBd-mnjXwd4-53" target="6J3ef90GhwBd-mnjXwd4-44">
          <mxGeometry relative="1" as="geometry" />
        </mxCell>
        <mxCell id="6J3ef90GhwBd-mnjXwd4-46" style="edgeStyle=orthogonalEdgeStyle;curved=1;rounded=0;orthogonalLoop=1;jettySize=auto;html=1;strokeColor=#000000;strokeWidth=1;fontSize=12;fontColor=#000000;" edge="1" parent="1" source="6J3ef90GhwBd-mnjXwd4-53" target="6J3ef90GhwBd-mnjXwd4-42">
          <mxGeometry relative="1" as="geometry" />
        </mxCell>
        <mxCell id="6J3ef90GhwBd-mnjXwd4-47" value="" style="edgeStyle=orthogonalEdgeStyle;curved=1;rounded=0;orthogonalLoop=1;jettySize=auto;html=1;strokeColor=#000000;strokeWidth=1;fontSize=12;fontColor=#000000;" edge="1" parent="1" source="6J3ef90GhwBd-mnjXwd4-53" target="6J3ef90GhwBd-mnjXwd4-41">
          <mxGeometry relative="1" as="geometry" />
        </mxCell>
        <mxCell id="6J3ef90GhwBd-mnjXwd4-48" value="" style="endArrow=none;html=1;rounded=0;strokeColor=#000000;strokeWidth=1;fontSize=12;fontColor=#000000;curved=1;entryX=1;entryY=1;entryDx=0;entryDy=0;exitX=0;exitY=1;exitDx=0;exitDy=0;dashed=1;" edge="1" parent="1" source="6J3ef90GhwBd-mnjXwd4-2" target="6J3ef90GhwBd-mnjXwd4-38">
          <mxGeometry width="50" height="50" relative="1" as="geometry">
            <mxPoint x="1071.5" y="2190" as="sourcePoint" />
            <mxPoint x="1121.5" y="2140" as="targetPoint" />
          </mxGeometry>
        </mxCell>
        <mxCell id="6J3ef90GhwBd-mnjXwd4-49" value="下游优先部署" style="text;html=1;strokeColor=none;fillColor=none;align=center;verticalAlign=middle;whiteSpace=wrap;rounded=0;dashed=1;strokeWidth=1;fontSize=12;fontColor=#000000;" vertex="1" parent="1">
          <mxGeometry x="930" y="1923" width="141" height="30" as="geometry" />
        </mxCell>
        <mxCell id="6J3ef90GhwBd-mnjXwd4-50" value="" style="endArrow=none;html=1;rounded=0;strokeColor=#000000;strokeWidth=1;fontSize=12;fontColor=#000000;curved=1;entryX=1;entryY=1;entryDx=0;entryDy=0;exitX=0;exitY=1;exitDx=0;exitDy=0;dashed=1;" edge="1" parent="1">
          <mxGeometry width="50" height="50" relative="1" as="geometry">
            <mxPoint x="970.75" y="2096" as="sourcePoint" />
            <mxPoint x="1268.25" y="2096" as="targetPoint" />
          </mxGeometry>
        </mxCell>
        <mxCell id="6J3ef90GhwBd-mnjXwd4-51" value="" style="endArrow=none;html=1;rounded=0;strokeColor=#000000;strokeWidth=1;fontSize=12;fontColor=#000000;curved=1;entryX=1;entryY=1;entryDx=0;entryDy=0;exitX=0;exitY=1;exitDx=0;exitDy=0;dashed=1;" edge="1" parent="1">
          <mxGeometry width="50" height="50" relative="1" as="geometry">
            <mxPoint x="971.5" y="2055" as="sourcePoint" />
            <mxPoint x="1269" y="2055" as="targetPoint" />
          </mxGeometry>
        </mxCell>
        <mxCell id="6J3ef90GhwBd-mnjXwd4-52" value="" style="endArrow=none;html=1;rounded=0;strokeColor=#000000;strokeWidth=1;fontSize=12;fontColor=#000000;curved=1;entryX=1;entryY=1;entryDx=0;entryDy=0;exitX=0;exitY=1;exitDx=0;exitDy=0;dashed=1;" edge="1" parent="1">
          <mxGeometry width="50" height="50" relative="1" as="geometry">
            <mxPoint x="971.5" y="2013.9999999999998" as="sourcePoint" />
            <mxPoint x="1269" y="2013.9999999999998" as="targetPoint" />
          </mxGeometry>
        </mxCell>
        <mxCell id="6J3ef90GhwBd-mnjXwd4-53" value="71" style="ellipse;whiteSpace=wrap;html=1;strokeColor=#d79b00;strokeWidth=1;fontSize=12;fillColor=#ffe6cc;" vertex="1" parent="1">
          <mxGeometry x="1109.5" y="1960" width="40" height="30" as="geometry" />
        </mxCell>
        <mxCell id="6J3ef90GhwBd-mnjXwd4-54" value="" style="ellipse;whiteSpace=wrap;html=1;strokeColor=#666666;strokeWidth=1;fontSize=12;fontColor=#333333;fillColor=#f5f5f5;" vertex="1" parent="1">
          <mxGeometry x="980.5" y="2101" width="40" height="30" as="geometry" />
        </mxCell>
        <mxCell id="6J3ef90GhwBd-mnjXwd4-55" value="" style="ellipse;whiteSpace=wrap;html=1;strokeColor=#666666;strokeWidth=1;fontSize=12;fontColor=#333333;fillColor=#f5f5f5;" vertex="1" parent="1">
          <mxGeometry x="1099.5" y="2101" width="40" height="30" as="geometry" />
        </mxCell>
        <mxCell id="6J3ef90GhwBd-mnjXwd4-56" value="" style="ellipse;whiteSpace=wrap;html=1;strokeColor=#666666;strokeWidth=1;fontSize=12;fontColor=#333333;fillColor=#f5f5f5;" vertex="1" parent="1">
          <mxGeometry x="1219" y="2060.5" width="40" height="30" as="geometry" />
        </mxCell>
        <mxCell id="6J3ef90GhwBd-mnjXwd4-57" style="edgeStyle=orthogonalEdgeStyle;curved=1;rounded=0;orthogonalLoop=1;jettySize=auto;html=1;strokeColor=#000000;strokeWidth=1;fontSize=12;fontColor=#000000;" edge="1" parent="1" source="6J3ef90GhwBd-mnjXwd4-53" target="6J3ef90GhwBd-mnjXwd4-43">
          <mxGeometry relative="1" as="geometry" />
        </mxCell>
        <mxCell id="6J3ef90GhwBd-mnjXwd4-58" value="" style="ellipse;whiteSpace=wrap;html=1;strokeColor=#666666;strokeWidth=1;fontSize=12;fontColor=#333333;fillColor=#f5f5f5;" vertex="1" parent="1">
          <mxGeometry x="981.5" y="2020" width="40" height="30" as="geometry" />
        </mxCell>
        <mxCell id="6J3ef90GhwBd-mnjXwd4-59" style="edgeStyle=orthogonalEdgeStyle;curved=1;rounded=0;orthogonalLoop=1;jettySize=auto;html=1;strokeColor=#000000;strokeWidth=1;fontSize=12;fontColor=#000000;" edge="1" parent="1" source="6J3ef90GhwBd-mnjXwd4-53" target="6J3ef90GhwBd-mnjXwd4-39">
          <mxGeometry relative="1" as="geometry" />
        </mxCell>
        <mxCell id="6J3ef90GhwBd-mnjXwd4-60" value="" style="ellipse;whiteSpace=wrap;html=1;strokeColor=#666666;strokeWidth=1;fontSize=12;fontColor=#333333;fillColor=#f5f5f5;" vertex="1" parent="1">
          <mxGeometry x="1040.5" y="2060.5" width="40" height="30" as="geometry" />
        </mxCell>
        <mxCell id="6J3ef90GhwBd-mnjXwd4-61" value="" style="edgeStyle=orthogonalEdgeStyle;curved=1;rounded=0;orthogonalLoop=1;jettySize=auto;html=1;strokeColor=#000000;strokeWidth=1;fontSize=12;fontColor=#000000;entryX=0.5;entryY=0;entryDx=0;entryDy=0;" edge="1" parent="1" source="6J3ef90GhwBd-mnjXwd4-53" target="6J3ef90GhwBd-mnjXwd4-40">
          <mxGeometry relative="1" as="geometry" />
        </mxCell>
      </root>
    </mxGraphModel>
  </diagram>
</mxfile>
